<?xml version="1.0" standalone="no"?><!DOCTYPE svg PUBLIC "-//W3C//DTD SVG 1.1//EN" "http://www.w3.org/Graphics/SVG/1.1/DTD/svg11.dtd"><svg t="1757734469486" class="icon" viewBox="0 0 1989 1024" version="1.1" xmlns="http://www.w3.org/2000/svg" p-id="6088" xmlns:xlink="http://www.w3.org/1999/xlink" width="388.4765625" height="200"><path d="M503.163452 82.335838A61.44 61.44 0 1 0 564.603452 20.895838a61.543959 61.543959 0 0 0-61.44 61.44z" fill="#F3D24F" p-id="6089"></path><path d="M482.267614 82.335838a82.335838 82.335838 0 1 0 164.671675 0 82.335838 82.335838 0 0 0-164.671675 0c-1.455431 26.925482 40.440203 26.821523 41.583757 0 2.806904-51.979695 80.984365-51.979695 80.984365 0s-78.177462 51.979695-80.984365 0c-1.143553-26.821523-43.039188-26.925482-41.583757 0z" fill="#49494A" p-id="6090"></path><path d="M423.010761 291.086294v-57.177665h-93.251573v57.177665h-62.063757v-57.177665h-92.10802v57.177665h-62.167716v-57.177665H21.311675v57.177665h-0.415837v168.206295h49.588629v543.083858h302.937665V459.292589h49.588629V291.086294zM1968.159188 292.437766v-57.177664h-93.147614v57.177664h-62.167716v-57.177664h-92.10802v57.177664h-62.167716v-57.177664h-92.10802v57.177664h-0.311879V460.644061h49.48467v542.979898h302.937665V460.644061h49.58863V292.437766z" fill="#92CAEE" p-id="6091"></path><path d="M1338.685076 662.845076h213.532589V1002.272487h-213.532589zM436.94132 662.845076h213.532589V1002.272487H436.94132z" fill="#BBBCBE" p-id="6092"></path><path d="M1409.481421 515.638579L994.579492 28.900711 579.677563 515.638579h132.236346v486.737868h565.331167V515.638579h132.236345z" fill="#92CAEE" p-id="6093"></path><path d="M423.010761 289.838782v-57.281625h-53.123248v165.919188h-49.48467v542.979899H70.484467v59.568731h302.937665V458.045076h49.588629V289.838782zM1915.139898 233.908629v165.919188h-49.588629v542.979899h-249.918376v59.568731h302.937665V459.292589h49.58863V233.908629h-53.01929z" fill="#5DA1D3" p-id="6094"></path><path d="M1499.198376 941.456244h-160.5133v59.568731h213.532589V661.597563h-53.019289v279.858681zM597.454619 941.456244H436.94132v59.568731h213.532589V661.597563h-53.01929v279.858681z" fill="#98999C" p-id="6095"></path><path d="M763.685685 267.487513L564.811371 500.772386a20.791878 20.791878 0 0 0 14.866192 35.76203h132.236346l-20.791879-20.791878v147.102538c0 27.029442 41.583756 27.029442 41.583757 0V515.638579a20.791878 20.791878 0 0 0-20.791878-20.791878H579.677563L594.439797 530.296853l198.874315-233.180914c17.465178-20.791878-12.059289-50.212386-29.628427-29.628426zM1338.685076 1023.272284h213.532589c27.029442 0 27.029442-41.583756 0-41.583756h-213.532589c-26.925482 0-27.029442 41.583756 0 41.583756zM1552.217665 641.949239h-213.532589c-26.925482 0-27.029442 41.583756 0 41.583756h213.532589c27.029442 0 27.029442-41.583756 0-41.583756z" fill="#49494A" p-id="6096"></path><path d="M650.473909 641.949239H436.629442c-27.029442 0-27.029442 41.583756 0 41.583756h213.844467c26.925482 0 27.029442-41.583756 0-41.583756zM436.629442 1023.272284h213.844467c26.925482 0 27.029442-41.583756 0-41.583756H436.629442c-27.029442 0-27.029442 41.583756 0 41.583756zM449.728325 577.910254h-14.242437a20.791878 20.791878 0 0 0 0 41.583756h14.242437a20.791878 20.791878 0 1 0 0-41.583756zM649.122437 577.910254H510.128731c-26.925482 0-27.029442 41.583756 0 41.583756h138.993706c26.925482 0 26.925482-41.583756 0-41.583756z" fill="#49494A" p-id="6097"></path><path d="M220.809746 138.993706H88.67736l132.132386-93.251574v93.251574z" fill="#92CAEE" p-id="6098"></path><path d="M220.809746 117.993909H88.67736l10.395939 39.088731 132.236346-93.563452-31.187818-17.984975v93.563452c0 26.925482 41.583756 26.925482 41.583757 0v-93.563452a20.791878 20.791878 0 0 0-31.187818-18.088934l-132.132385 93.563452a20.791878 20.791878 0 0 0 10.395939 38.984772h132.028426c26.925482-0.103959 27.029442-41.999594 0-41.999594z" fill="#49494A" p-id="6099"></path><path d="M199.913909 138.993706v88.573401c0 27.029442 41.583756 27.029442 41.583756 0v-88.573401c0-26.925482-41.583756-27.029442-41.583756 0z" fill="#49494A" p-id="6100"></path><path d="M1767.101726 138.993706h-132.132386l132.132386-93.251574v93.251574z" fill="#92CAEE" p-id="6101"></path><path d="M1767.309645 117.993909h-132.340305l10.395939 39.088731 132.132386-93.563452L1746.517766 45.846091v93.563452c0 26.925482 41.583756 26.925482 41.583757 0v-93.563452a20.791878 20.791878 0 0 0-31.187817-18.088934l-132.236346 93.563452a20.791878 20.791878 0 0 0 10.395939 38.984772H1767.309645c26.821523-0.415838 26.821523-42.311472 0-42.311472z" fill="#49494A" p-id="6102"></path><path d="M1746.517766 138.993706v88.573401c0 27.029442 41.583756 27.029442 41.583757 0v-88.573401c0-26.925482-41.583756-27.029442-41.583757 0z" fill="#49494A" p-id="6103"></path><path d="M1040.529543 422.594924v-88.365482a29.316548 29.316548 0 0 0-29.316548-29.316549h-26.821523a29.212589 29.212589 0 0 0-29.212589 29.316549v88.365482z" fill="#F3D24F" p-id="6104"></path><path d="M1061.425381 422.594924c0-27.133401 0.519797-54.266802 0-81.400203-1.039594-39.608528-25.989848-57.177665-63.415229-57.177665s-62.375635 17.465178-63.623147 57.177665v81.400203a21.311675 21.311675 0 0 0 20.791878 20.791878h85.35066c26.925482 0 27.029442-41.583756 0-41.583756h-85.35066l20.791878 20.791878v-57.697462a140.345178 140.345178 0 0 1 0-28.796751c2.806904-12.163249 11.227614-10.395939 21.727513-10.395939s18.504772-1.871269 21.727513 9.564264a108.533604 108.533604 0 0 1 0 27.23736v59.880609c0.103959 27.133401 41.999594 27.23736 41.999594 0.207919z" fill="#49494A" p-id="6105"></path><path d="M586.330964 838.640406v-88.365482a29.212589 29.212589 0 0 0-29.212588-29.316548H530.192893a29.316548 29.316548 0 0 0-29.316548 29.316548v88.365482z" fill="#F3D24F" p-id="6106"></path><path d="M607.330761 838.640406v-81.400203c-0.623756-39.712487-26.093807-57.177665-63.623147-57.177665s-62.999391 17.465178-63.623147 57.177665v81.400203a20.791878 20.791878 0 0 0 20.791878 20.791878h85.454619c27.029442 0 27.029442-41.583756 0-41.583756h-85.350659l20.791878 20.791878v-57.697462a140.345178 140.345178 0 0 1 0-28.796751c2.806904-12.163249 11.123655-10.395939 21.727512-10.395939s18.400812-1.871269 21.727513 9.564264a113.627614 113.627614 0 0 1 0 27.23736v59.880609c0.207919 27.133401 42.103553 27.23736 42.103553 0.207919z" fill="#49494A" p-id="6107"></path><path d="M1488.17868 838.640406v-88.365482a29.316548 29.316548 0 0 0-29.316548-29.316548h-26.821523a29.212589 29.212589 0 0 0-29.212589 29.316548v88.365482z" fill="#F3D24F" p-id="6108"></path><path d="M1509.074518 838.640406v-81.400203c-0.623756-39.712487-25.989848-57.177665-63.623147-57.177665s-62.791472 17.361218-63.623148 57.177665v81.400203a20.791878 20.791878 0 0 0 20.791879 20.791878h85.350659c26.925482 0 26.925482-41.583756 0-41.583756h-85.350659l20.791878 20.791878v-57.697462a140.345178 140.345178 0 0 1 0-28.796751c2.806904-12.163249 11.227614-10.395939 21.727512-10.395939s18.400812-1.871269 21.727513 9.564264a113.627614 113.627614 0 0 1 0 27.23736v59.880609c0.311878 27.133401 42.207513 27.23736 42.207513 0.207919zM897.68934 515.742538v83.167513c0 27.029442 41.583756 27.029442 41.583756 0v-83.167513c0-26.925482-41.583756-26.925482-41.583756 0zM1050.821523 515.742538v83.167513c0 27.029442 41.583756 27.029442 41.583756 0v-83.167513c0-26.925482-41.583756-26.925482-41.583756 0zM974.203452 515.742538v83.167513c0 27.029442 41.583756 27.029442 41.583756 0v-83.167513c0-26.925482-41.583756-26.925482-41.583756 0z" fill="#49494A" p-id="6109"></path><path d="M1615.632893 460.644061h108.221726v54.890558h-108.221726z" fill="#F3D24F" p-id="6110"></path><path d="M1723.854619 494.638782h-108.221726l20.791879 20.791878V460.644061l-20.791879 20.791878h108.221726l-20.791878-20.791878v54.994518c0 26.925482 41.583756 26.925482 41.583756 0V460.644061a20.791878 20.791878 0 0 0-20.791878-20.791878h-108.221726a20.791878 20.791878 0 0 0-20.791878 20.791878v54.994518a20.791878 20.791878 0 0 0 20.791878 20.791878h108.221726c26.925482 0.103959 27.029442-41.791675 0-41.791675z" fill="#49494A" p-id="6111"></path><path d="M1615.632893 662.845076h108.221726v54.890559h-108.221726z" fill="#F3D24F" p-id="6112"></path><path d="M1723.854619 696.631878h-108.221726l20.791879 20.791878v-54.57868l-20.791879 20.791878h108.221726l-20.791878-20.791878V717.423756c0 26.925482 41.583756 26.925482 41.583756 0v-54.57868a20.791878 20.791878 0 0 0-20.791878-20.791878h-108.221726a20.791878 20.791878 0 0 0-20.791878 20.791878V717.423756a20.791878 20.791878 0 0 0 20.791878 20.791879h108.221726c26.925482 0.519797 27.029442-41.583756 0-41.583757z" fill="#49494A" p-id="6113"></path><path d="M1615.632893 865.150051h108.221726v54.890558h-108.221726z" fill="#F3D24F" p-id="6114"></path><path d="M1723.854619 899.040812h-108.221726l20.791879 20.791878v-54.682639l-20.791879 20.791878h108.221726l-20.791878-20.791878v54.890558c0 26.925482 41.583756 27.029442 41.583756 0v-54.890558a20.791878 20.791878 0 0 0-20.791878-20.791878h-108.221726a20.791878 20.791878 0 0 0-20.791878 20.791878v54.890558a20.791878 20.791878 0 0 0 20.791878 20.791878h108.221726c26.925482 0.103959 27.029442-41.791675 0-41.791675z" fill="#49494A" p-id="6115"></path><path d="M1806.918173 569.593503h108.221725v54.890558h-108.221725z" fill="#F3D24F" p-id="6116"></path><path d="M1915.139898 603.588223h-108.221725l20.791878 20.791879v-54.786599l-20.791878 20.791878h108.221725l-20.791878-20.791878v54.890558c0 26.925482 41.583756 27.029442 41.583757 0v-54.890558a20.791878 20.791878 0 0 0-20.791879-20.791879h-108.221725a20.791878 20.791878 0 0 0-20.791879 20.791879v54.890558a20.791878 20.791878 0 0 0 20.791879 20.791878h108.221725c26.925482 0.207919 26.925482-41.687716 0-41.687716z" fill="#49494A" p-id="6117"></path><path d="M1806.918173 771.794518h108.221725v54.890558h-108.221725z" fill="#F3D24F" p-id="6118"></path><path d="M1915.139898 805.789239h-108.221725l20.791878 20.791878v-54.786599l-20.791878 20.791878h108.221725l-20.791878-20.791878v54.890558c0 27.029442 41.583756 27.029442 41.583757 0v-54.890558a20.791878 20.791878 0 0 0-20.791879-20.791878h-108.221725a20.791878 20.791878 0 0 0-20.791879 20.791878v54.890558a20.791878 20.791878 0 0 0 20.791879 20.791878h108.221725c26.925482 0.207919 26.925482-41.687716 0-41.687715z" fill="#49494A" p-id="6119"></path><path d="M264.160812 458.876751h108.221726v54.890559H264.160812z" fill="#F3D24F" p-id="6120"></path><path d="M264.160812 534.767107h108.221726a20.791878 20.791878 0 0 0 20.791878-20.791879v-55.098477a20.791878 20.791878 0 0 0-20.791878-20.791878H264.160812a20.791878 20.791878 0 0 0-20.791878 20.791878v54.994518c0 26.925482 41.583756 26.925482 41.583756 0v-54.994518l-20.791878 20.791878h108.221726l-20.791878-20.791878v54.994518l20.791878-20.791878H264.160812c-26.925482-0.207919-26.925482 41.687716 0 41.687716z" fill="#49494A" p-id="6121"></path><path d="M264.160812 661.077766h108.221726v54.890559H264.160812z" fill="#F3D24F" p-id="6122"></path><path d="M264.160812 736.968122h108.221726a20.791878 20.791878 0 0 0 20.791878-20.791878v-55.098478a20.791878 20.791878 0 0 0-20.791878-20.791878H264.160812a20.791878 20.791878 0 0 0-20.791878 20.791878v54.994518c0 26.925482 41.583756 26.925482 41.583756 0v-54.994518l-20.791878 20.791879h108.221726l-20.791878-20.791879v54.994518l20.791878-20.791878H264.160812c-26.925482-0.207919-26.925482 41.687716 0 41.687716z" fill="#49494A" p-id="6123"></path><path d="M264.160812 863.382741h108.221726v54.890558H264.160812z" fill="#F3D24F" p-id="6124"></path><path d="M264.160812 939.169137h108.221726a20.791878 20.791878 0 0 0 20.791878-20.791878V862.966904a20.791878 20.791878 0 0 0-20.791878-20.791879H264.160812a20.791878 20.791878 0 0 0-20.791878 20.791879v54.890558c0 26.925482 41.583756 26.925482 41.583756 0V862.966904l-20.791878 20.791878h108.221726l-20.791878-20.791878v54.890558l20.791878-20.791878H264.160812c-26.925482 0.207919-26.925482 42.103553 0 42.103553z" fill="#49494A" p-id="6125"></path><path d="M72.979492 567.826193h108.221726v54.890558H72.979492z" fill="#F3D24F" p-id="6126"></path><path d="M72.771574 643.716548h108.117766a21.311675 21.311675 0 0 0 20.791878-20.791878v-55.098477a21.311675 21.311675 0 0 0-20.791878-20.791878H72.771574a21.311675 21.311675 0 0 0-20.791879 20.791878v54.890558c0 26.925482 41.583756 27.029442 41.583757 0v-54.890558l-20.791878 20.791878h108.117766l-20.791878-20.791878v54.890558l20.791878-20.791878H72.771574c-26.821523-0.103959-26.821523 41.791675 0 41.791675z" fill="#49494A" p-id="6127"></path><path d="M72.979492 770.027208h108.221726v54.890558H72.979492z" fill="#F3D24F" p-id="6128"></path><path d="M72.771574 845.917563h108.117766a21.311675 21.311675 0 0 0 20.791878-20.791878v-55.098477a20.791878 20.791878 0 0 0-20.791878-20.791878H72.771574a20.791878 20.791878 0 0 0-20.791879 20.791878v54.890558c0 27.029442 41.583756 27.029442 41.583757 0v-54.890558l-20.791878 20.791878h108.117766l-20.791878-20.791878v54.890558l20.791878-20.791878H72.771574c-26.821523-0.103959-26.821523 41.791675 0 41.791675zM1300.739898 250.126294l-121.944365-143.048121c-17.569137-20.791878-47.093604 9.252386-29.628426 29.628426l121.944365 143.048122c17.465178 20.791878 46.989645-9.148426 29.628426-29.628427zM1385.986599 350.239188l-30.460102-35.762031a20.791878 20.791878 0 0 0-29.628426 0 21.415635 21.415635 0 0 0 0 29.628427l30.460102 35.76203a20.791878 20.791878 0 0 0 29.628426-29.628426zM1438.486091 464.906396c26.925482 0 26.925482-41.583756 0-41.583756s-27.029442 41.583756 0 41.583756zM1125.048528 103.335635c26.925482 0 26.925482-41.583756 0-41.583757s-27.029442 41.583756 0 41.583757z" fill="#49494A" p-id="6129"></path><path d="M1224.225787 455.134213v486.322031H711.913909v59.568731h565.331167V514.287107h132.236345l-50.420304-59.152894h-134.83533z" fill="#5DA1D3" p-id="6130"></path><path d="M394.31797 662.845076V458.668832l-20.791879 20.791879h49.58863a21.311675 21.311675 0 0 0 20.791878-20.791879V233.180914a20.791878 20.791878 0 0 0-20.791878-20.791878h-93.563452a20.791878 20.791878 0 0 0-20.791878 20.791878v57.281624l20.791878-20.791878h-62.375634l20.791878 20.791878v-57.281624a20.791878 20.791878 0 0 0-20.791878-20.791878h-91.692183a20.791878 20.791878 0 0 0-20.791878 20.791878v57.281624l20.791878-20.791878h-62.375635l20.791878 20.791878v-57.281624a20.791878 20.791878 0 0 0-20.791878-20.791878H21.311675a20.791878 20.791878 0 0 0-20.791878 20.791878v57.281624l20.791878-20.791878H20.791878a20.791878 20.791878 0 0 0-20.791878 20.791878v168.206294a20.791878 20.791878 0 0 0 20.791878 20.791879h49.692589l-20.791878-20.791879v542.979899a20.791878 20.791878 0 0 0 20.791878 20.791878h302.937665a20.791878 20.791878 0 0 0 20.791878-20.791878v-81.608122c0-26.925482-41.583756-27.029442-41.583756 0v81.608122l20.791878-20.791878H70.484467l20.791878 20.791878V458.668832a20.791878 20.791878 0 0 0-20.791878-20.791878H20.791878l20.791878 20.791878V290.462538l-20.791878 20.791878a20.791878 20.791878 0 0 0 20.791878-20.791878v-57.281624l-20.791878 20.791878h92.10802l-20.791878-20.791878v57.281624a20.791878 20.791878 0 0 0 20.791878 20.791878h62.375635a20.791878 20.791878 0 0 0 20.791878-20.791878v-57.281624l-20.791878 20.791878h92.21198l-20.791878-20.791878v57.281624a20.791878 20.791878 0 0 0 20.791878 20.791878h62.375634a20.791878 20.791878 0 0 0 20.791878-20.791878v-57.281624l-20.791878 20.791878h93.563452l-20.791878-20.791878v225.487918l20.791878-20.791878h-50.004467a20.791878 20.791878 0 0 0-20.791878 20.791878v204.176244c0 27.029442 41.583756 27.029442 41.583756 0zM1545.148426 393.278376v66.741929a20.791878 20.791878 0 0 0 20.791879 20.791878h49.48467l-20.791879-20.791878v202.824771c0 27.029442 41.583756 27.029442 41.583757 0V460.020305a20.791878 20.791878 0 0 0-20.791878-20.791879h-49.48467l20.791878 20.791879v-66.741929c0-26.925482-41.583756-26.925482-41.583757 0z" fill="#49494A" p-id="6131"></path><path d="M1594.737056 920.040609v83.167513a20.791878 20.791878 0 0 0 20.791878 20.791878h302.937665a20.791878 20.791878 0 0 0 20.791878-20.791878V460.020305l-20.791878 20.791878h49.588629a20.791878 20.791878 0 0 0 20.791879-20.791878V234.532386a20.791878 20.791878 0 0 0-20.791879-20.791878h-93.563451a20.791878 20.791878 0 0 0-20.791879 20.791878v57.281624l20.791879-20.791878h-62.375635l20.791878 20.791878v-57.281624a20.791878 20.791878 0 0 0-20.791878-20.791878h-92.10802a20.791878 20.791878 0 0 0-20.791878 20.791878v57.281624l20.791878-20.791878h-62.375635l20.791878 20.791878v-57.281624a20.791878 20.791878 0 0 0-20.791878-20.791878h-92.10802a20.791878 20.791878 0 0 0-20.791878 20.791878v57.281624c0 26.925482 41.583756 26.925482 41.583756 0v-57.281624l-20.791878 20.791878h92.10802l-20.791878-20.791878v57.281624a20.791878 20.791878 0 0 0 20.791878 20.791878h62.375635a20.791878 20.791878 0 0 0 20.791878-20.791878v-57.281624l-20.791878 20.791878h92.10802l-20.791878-20.791878v57.281624a20.791878 20.791878 0 0 0 20.791878 20.791878h62.375635a20.791878 20.791878 0 0 0 20.791878-20.791878v-57.281624l-20.791878 20.791878h93.563451l-20.791878-20.791878v225.487919l20.791878-20.791879h-49.588629a20.791878 20.791878 0 0 0-20.791878 20.791879v542.979898l20.791878-20.791878h-302.833706l20.791879 20.791878v-83.167513c0-26.925482-41.583756-27.029442-41.583757 0zM1298.140914 662.845076V515.638579l-20.791878 20.791878h132.236345a20.791878 20.791878 0 0 0 14.658274-35.658071L1009.341726 14.034518a20.791878 20.791878 0 0 0-29.524467 0L830.739492 188.894213c-17.361218 20.791878 12.059289 50.108426 29.628427 29.628427L1009.341726 43.662944h-29.524467L1394.719188 530.296853l14.762233-35.762031h-132.236345a20.791878 20.791878 0 0 0-20.791878 20.791879v147.518375c0 27.029442 41.583756 27.029442 41.583756 0zM690.914112 920.040609v82.335838a21.311675 21.311675 0 0 0 20.791878 20.791878h565.331167a20.791878 20.791878 0 0 0 20.791879-20.791878v-82.335838c0-26.925482-41.583756-27.029442-41.583757 0v82.335838l20.791878-20.791878H711.913909l20.791878 20.791878v-82.335838c0-26.925482-41.583756-27.029442-41.583757 0z" fill="#49494A" p-id="6132"></path><path d="M1116.21198 1000.297259V748.611574a83.167513 83.167513 0 0 0-83.167513-83.167513H956.426396a83.167513 83.167513 0 0 0-83.167513 83.167513v251.685685z" fill="#F3D24F" p-id="6133"></path><path d="M1137.107817 1000.297259v-228.71066c0-31.187817-1.76731-61.44-22.247309-87.741726-31.187817-39.816447-74.746802-40.336244-120.384975-40.336244s-89.405076 0-120.384975 40.336244c-20.791878 26.405685-22.24731 56.034112-22.247309 87.741726v228.71066a20.791878 20.791878 0 0 0 20.791878 20.791878h243.368934c26.925482 0 26.925482-41.583756 0-41.583756H873.258883l20.791878 20.791878V824.501929c0-24.222538-2.183147-49.796548 0-74.019086 5.509848-60.296447 51.979695-64.662741 100.73665-64.662741s95.018883 4.158376 100.73665 63.831066c2.183147 22.975025 0 47.197563 0 70.172588v180.473503c-0.311878 26.925482 41.583756 27.029442 41.583756 0z" fill="#49494A" p-id="6134"></path></svg>